<svg width="1480" height="810" xmlns="http://www.w3.org/2000/svg" xmlns:xlink="http://www.w3.org/1999/xlink"><rect x="0" y="0" width="1480" height="810" rx="5" ry="5" style="fill:#282d35"/><circle cx="20" cy="20" r="7" style="fill:#ff5f58"/><circle cx="43" cy="20" r="7" style="fill:#ffbd2e"/><circle cx="66" cy="20" r="7" style="fill:#18c132"/><g transform="translate(20,60)"><g style="animation-duration:9.26s;animation-iteration-count:infinite;animation-name:k;animation-timing-function:steps(1,end);font-family:Monaco,Consolas,Menlo,'Bitstream Vera Sans Mono','Powerline Symbols',monospace;font-size:20px"><style>@keyframes k {9.431%{transform:translateX(-0px)}15.877%{transform:translateX(-1480px)}17.330%{transform:translateX(-2960px)}24.411%{transform:translateX(-4440px)}20.246%{transform:translateX(-5920px)}28.466%{transform:translateX(-7400px)}33.228%{transform:translateX(-8880px)}35.425%{transform:translateX(-10360px)}37.503%{transform:translateX(-11840px)}40.906%{transform:translateX(-13320px)}44.045%{transform:translateX(-14800px)}48.199%{transform:translateX(-16280px)}52.560%{transform:translateX(-17760px)}55.272%{transform:translateX(-19240px)}59.221%{transform:translateX(-20720px)}61.806%{transform:translateX(-22200px)}64.487%{transform:translateX(-23680px)}67.906%{transform:translateX(-25160px)}70.287%{transform:translateX(-26640px)}74.647%{transform:translateX(-28120px)}79.884%{transform:translateX(-29600px)}86.097%{transform:translateX(-31080px)}100.000%{transform:translateX(-32560px)}}.a{fill:#e5e5e5}</style><g transform="translate(0)"><text x="0" y="0" class="a">w</text></g><g transform="translate(1480)"><text x="0" y="0" class="a">we</text></g><g transform="translate(2960)"><text x="0" y="0" class="a">web</text></g><g transform="translate(4440)"><text x="0" y="0" class="a">webt</text></g><g transform="translate(5920)"><text x="0" y="0" class="a">webto</text></g><g transform="translate(7400)"><text x="0" y="0" class="a">webtor</text></g><g transform="translate(8880)"><text x="0" y="0" class="a">webtorr</text></g><g transform="translate(10360)"><text x="0" y="0" class="a">webtorre</text></g><g transform="translate(11840)"><text x="0" y="0" class="a">webtorren</text></g><g transform="translate(13320)"><text x="0" y="0" class="a">webtorrent</text></g><g transform="translate(14800)"><text x="0" y="0" class="a">webtorrent</text></g><g transform="translate(16280)"><text x="0" y="0" class="a">webtorrent</text><text x="132" y="0" class="a">-</text></g><g transform="translate(17760)"><text x="0" y="0" class="a">webtorrent</text><text x="132" y="0" class="a">--</text></g><g transform="translate(19240)"><text x="0" y="0" class="a">webtorrent</text><text x="132" y="0" class="a">--v</text></g><g transform="translate(20720)"><text x="0" y="0" class="a">webtorrent</text><text x="132" y="0" class="a">--ve</text></g><g transform="translate(22200)"><text x="0" y="0" class="a">webtorrent</text><text x="132" y="0" class="a">--ver</text></g><g transform="translate(23680)"><text x="0" y="0" class="a">webtorrent</text><text x="132" y="0" class="a">--vers</text></g><g transform="translate(25160)"><text x="0" y="0" class="a">webtorrent</text><text x="132" y="0" class="a">--versi</text></g><g transform="translate(26640)"><text x="0" y="0" class="a">webtorrent</text><text x="132" y="0" class="a">--versio</text></g><g transform="translate(28120)"><text x="0" y="0" class="a">webtorrent</text><text x="132" y="0" class="a">--version</text></g><g transform="translate(29600)"><text x="0" y="0" class="a">webtorrent</text><text x="132" y="0" class="a">--version</text></g><g transform="translate(31080)"><text x="0" y="0" class="a">webtorrent</text><text x="132" y="0" class="a">--version</text><text x="0" y="25" class="a">5.1.3</text><text x="72" y="25" class="a">(2.6.10)</text></g><g transform="translate(32560)"><text x="0" y="0" class="a">webtorrent</text><text x="132" y="0" class="a">--version</text><text x="0" y="25" class="a">5.1.3</text><text x="72" y="25" class="a">(2.6.10)</text></g></g></g></svg>