<svg width="1480" height="810" xmlns="http://www.w3.org/2000/svg" xmlns:xlink="http://www.w3.org/1999/xlink"><rect x="0" y="0" width="1480" height="810" rx="5" ry="5" style="fill:#282d35"/><circle cx="20" cy="20" r="7" style="fill:#ff5f58"/><circle cx="43" cy="20" r="7" style="fill:#ffbd2e"/><circle cx="66" cy="20" r="7" style="fill:#18c132"/><g transform="translate(20,60)"><g style="animation-duration:8.64s;animation-iteration-count:infinite;animation-name:k;animation-timing-function:steps(1,end);font-family:Monaco,Consolas,Menlo,'Bitstream Vera Sans Mono','Powerline Symbols',monospace;font-size:20px"><style>@keyframes k {10.462%{transform:translateX(-0px)}11.041%{transform:translateX(-1480px)}12.289%{transform:translateX(-2960px)}22.726%{transform:translateX(-4440px)}23.809%{transform:translateX(-5920px)}24.810%{transform:translateX(-7400px)}30.778%{transform:translateX(-8880px)}31.589%{transform:translateX(-10360px)}32.783%{transform:translateX(-11840px)}33.670%{transform:translateX(-13320px)}42.531%{transform:translateX(-14800px)}47.682%{transform:translateX(-16280px)}48.900%{transform:translateX(-17760px)}51.240%{transform:translateX(-19240px)}52.881%{transform:translateX(-20720px)}53.492%{transform:translateX(-22200px)}55.002%{transform:translateX(-23680px)}56.370%{transform:translateX(-25160px)}56.929%{transform:translateX(-26640px)}58.738%{transform:translateX(-28120px)}70.441%{transform:translateX(-29600px)}77.259%{transform:translateX(-31080px)}77.263%{transform:translateX(-32560px)}77.264%{transform:translateX(-34040px)}77.265%{transform:translateX(-35520px)}100.000%{transform:translateX(-37000px)}}.a{fill:#e5e5e5}.b{fill:#cd0000}.c{fill:#00cd00}</style><g transform="translate(0)"><text x="0" y="0" class="a">w</text></g><g transform="translate(1480)"><text x="0" y="0" class="a">we</text></g><g transform="translate(2960)"><text x="0" y="0" class="a">web</text></g><g transform="translate(4440)"><text x="0" y="0" class="a">webt</text></g><g transform="translate(5920)"><text x="0" y="0" class="a">webto</text></g><g transform="translate(7400)"><text x="0" y="0" class="a">webtor</text></g><g transform="translate(8880)"><text x="0" y="0" class="a">webtorr</text></g><g transform="translate(10360)"><text x="0" y="0" class="a">webtorre</text></g><g transform="translate(11840)"><text x="0" y="0" class="a">webtorren</text></g><g transform="translate(13320)"><text x="0" y="0" class="a">webtorrent</text></g><g transform="translate(14800)"><text x="0" y="0" class="a">webtorrent</text></g><g transform="translate(16280)"><text x="0" y="0" class="a">webtorrent</text><text x="132" y="0" class="a">-</text></g><g transform="translate(17760)"><text x="0" y="0" class="a">webtorrent</text><text x="132" y="0" class="a">--</text></g><g transform="translate(19240)"><text x="0" y="0" class="a">webtorrent</text><text x="132" y="0" class="a">--v</text></g><g transform="translate(20720)"><text x="0" y="0" class="a">webtorrent</text><text x="132" y="0" class="a">--ve</text></g><g transform="translate(22200)"><text x="0" y="0" class="a">webtorrent</text><text x="132" y="0" class="a">--ver</text></g><g transform="translate(23680)"><text x="0" y="0" class="a">webtorrent</text><text x="132" y="0" class="a">--veri</text></g><g transform="translate(25160)"><text x="0" y="0" class="a">webtorrent</text><text x="132" y="0" class="a">--veris</text></g><g transform="translate(26640)"><text x="0" y="0" class="a">webtorrent</text><text x="132" y="0" class="a">--veriso</text></g><g transform="translate(28120)"><text x="0" y="0" class="a">webtorrent</text><text x="132" y="0" class="a">--verison</text></g><g transform="translate(29600)"><text x="0" y="0" class="a">webtorrent</text><text x="132" y="0" class="a">--verison</text></g><g transform="translate(31080)"><text x="0" y="0" class="a">webtorrent</text><text x="132" y="0" class="a">--verison</text><text x="0" y="50" class="b">Error:</text><text x="84" y="50" class="a">Unknown</text><text x="180" y="50" class="a">argument:</text><text x="300" y="50" class="a">verison</text></g><g transform="translate(32560)"><text x="0" y="0" class="a">webtorrent</text><text x="132" y="0" class="a">--verison</text><text x="0" y="50" class="b">Error:</text><text x="84" y="50" class="a">Unknown</text><text x="180" y="50" class="a">argument:</text><text x="300" y="50" class="a">verison</text><text x="0" y="100" class="b">UNEXPECTED</text><text x="132" y="100" class="b">ERROR:</text><text x="216" y="100" class="a">If</text><text x="252" y="100" class="a">this</text><text x="312" y="100" class="a">is</text><text x="348" y="100" class="a">a</text><text x="372" y="100" class="a">bug</text><text x="420" y="100" class="a">in</text><text x="456" y="100" class="a">WebTorrent,</text><text x="600" y="100" class="a">report</text><text x="684" y="100" class="a">it!</text></g><g transform="translate(34040)"><text x="0" y="0" class="a">webtorrent</text><text x="132" y="0" class="a">--verison</text><text x="0" y="50" class="b">Error:</text><text x="84" y="50" class="a">Unknown</text><text x="180" y="50" class="a">argument:</text><text x="300" y="50" class="a">verison</text><text x="0" y="100" class="b">UNEXPECTED</text><text x="132" y="100" class="b">ERROR:</text><text x="216" y="100" class="a">If</text><text x="252" y="100" class="a">this</text><text x="312" y="100" class="a">is</text><text x="348" y="100" class="a">a</text><text x="372" y="100" class="a">bug</text><text x="420" y="100" class="a">in</text><text x="456" y="100" class="a">WebTorrent,</text><text x="600" y="100" class="a">report</text><text x="684" y="100" class="a">it!</text><text x="0" y="125" class="c">OPEN</text><text x="60" y="125" class="c">AN</text><text x="96" y="125" class="c">ISSUE:</text><text x="180" y="125" class="a">https://github.com/webtorrent/webtorrent-cli/issues</text></g><g transform="translate(35520)"><text x="0" y="0" class="a">webtorrent</text><text x="132" y="0" class="a">--verison</text><text x="0" y="50" class="b">Error:</text><text x="84" y="50" class="a">Unknown</text><text x="180" y="50" class="a">argument:</text><text x="300" y="50" class="a">verison</text><text x="0" y="100" class="b">UNEXPECTED</text><text x="132" y="100" class="b">ERROR:</text><text x="216" y="100" class="a">If</text><text x="252" y="100" class="a">this</text><text x="312" y="100" class="a">is</text><text x="348" y="100" class="a">a</text><text x="372" y="100" class="a">bug</text><text x="420" y="100" class="a">in</text><text x="456" y="100" class="a">WebTorrent,</text><text x="600" y="100" class="a">report</text><text x="684" y="100" class="a">it!</text><text x="0" y="125" class="c">OPEN</text><text x="60" y="125" class="c">AN</text><text x="96" y="125" class="c">ISSUE:</text><text x="180" y="125" class="a">https://github.com/webtorrent/webtorrent-cli/issues</text><text x="0" y="175" class="a">DEBUG</text><text x="72" y="175" class="a">INFO:</text><text x="144" y="175" class="a">webtorrent-cli</text><text x="324" y="175" class="a">5.1.3,</text><text x="408" y="175" class="a">webtorrent</text><text x="540" y="175" class="a">2.6.10,</text><text x="636" y="175" class="a">node</text><text x="696" y="175" class="a">v18.20.8,</text><text x="816" y="175" class="a">linux</text><text x="888" y="175" class="a">x64,</text><text x="948" y="175" class="a">exit</text><text x="1008" y="175" class="a">1</text></g><g transform="translate(37000)"><text x="0" y="0" class="a">webtorrent</text><text x="132" y="0" class="a">--verison</text><text x="0" y="50" class="b">Error:</text><text x="84" y="50" class="a">Unknown</text><text x="180" y="50" class="a">argument:</text><text x="300" y="50" class="a">verison</text><text x="0" y="100" class="b">UNEXPECTED</text><text x="132" y="100" class="b">ERROR:</text><text x="216" y="100" class="a">If</text><text x="252" y="100" class="a">this</text><text x="312" y="100" class="a">is</text><text x="348" y="100" class="a">a</text><text x="372" y="100" class="a">bug</text><text x="420" y="100" class="a">in</text><text x="456" y="100" class="a">WebTorrent,</text><text x="600" y="100" class="a">report</text><text x="684" y="100" class="a">it!</text><text x="0" y="125" class="c">OPEN</text><text x="60" y="125" class="c">AN</text><text x="96" y="125" class="c">ISSUE:</text><text x="180" y="125" class="a">https://github.com/webtorrent/webtorrent-cli/issues</text><text x="0" y="175" class="a">DEBUG</text><text x="72" y="175" class="a">INFO:</text><text x="144" y="175" class="a">webtorrent-cli</text><text x="324" y="175" class="a">5.1.3,</text><text x="408" y="175" class="a">webtorrent</text><text x="540" y="175" class="a">2.6.10,</text><text x="636" y="175" class="a">node</text><text x="696" y="175" class="a">v18.20.8,</text><text x="816" y="175" class="a">linux</text><text x="888" y="175" class="a">x64,</text><text x="948" y="175" class="a">exit</text><text x="1008" y="175" class="a">1</text></g></g></g></svg>