<svg width="1480" height="810" xmlns="http://www.w3.org/2000/svg" xmlns:xlink="http://www.w3.org/1999/xlink"><rect x="0" y="0" width="1480" height="810" rx="5" ry="5" style="fill:#282d35"/><circle cx="20" cy="20" r="7" style="fill:#ff5f58"/><circle cx="43" cy="20" r="7" style="fill:#ffbd2e"/><circle cx="66" cy="20" r="7" style="fill:#18c132"/><g transform="translate(20,60)"><g style="animation-duration:14.40s;animation-iteration-count:infinite;animation-name:k;animation-timing-function:steps(1,end);font-family:Monaco,Consolas,Menlo,'Bitstream Vera Sans Mono','Powerline Symbols',monospace;font-size:20px"><style>@keyframes k {11.007%{transform:translateX(-0px)}11.753%{transform:translateX(-1480px)}12.639%{transform:translateX(-2960px)}21.025%{transform:translateX(-4440px)}22.040%{transform:translateX(-5920px)}23.050%{transform:translateX(-7400px)}30.812%{transform:translateX(-8880px)}31.696%{transform:translateX(-10360px)}37.833%{transform:translateX(-11840px)}38.910%{transform:translateX(-13320px)}40.435%{transform:translateX(-14800px)}51.948%{transform:translateX(-16280px)}54.837%{transform:translateX(-17760px)}55.576%{transform:translateX(-19240px)}56.337%{transform:translateX(-20720px)}57.406%{transform:translateX(-22200px)}60.290%{transform:translateX(-23680px)}60.910%{transform:translateX(-25160px)}61.356%{transform:translateX(-26640px)}67.882%{transform:translateX(-28120px)}68.717%{transform:translateX(-29600px)}70.239%{transform:translateX(-31080px)}71.346%{transform:translateX(-32560px)}72.742%{transform:translateX(-34040px)}73.324%{transform:translateX(-35520px)}76.703%{transform:translateX(-37000px)}79.910%{transform:translateX(-38480px)}83.765%{transform:translateX(-39960px)}91.885%{transform:translateX(-41440px)}91.885%{transform:translateX(-42920px)}91.885%{transform:translateX(-44400px)}91.885%{transform:translateX(-45880px)}91.885%{transform:translateX(-47360px)}100.000%{transform:translateX(-48840px)}}.a{fill:#e5e5e5}.b{fill:#cd0000}</style><g transform="translate(0)"><text x="0" y="0" class="a">w</text></g><g transform="translate(1480)"><text x="0" y="0" class="a">we</text></g><g transform="translate(2960)"><text x="0" y="0" class="a">web</text></g><g transform="translate(4440)"><text x="0" y="0" class="a">webr</text></g><g transform="translate(5920)"><text x="0" y="0" class="a">webro</text></g><g transform="translate(7400)"><text x="0" y="0" class="a">webrot</text></g><g transform="translate(8880)"><text x="0" y="0" class="a">webro</text></g><g transform="translate(10360)"><text x="0" y="0" class="a">webror</text></g><g transform="translate(11840)"><text x="0" y="0" class="a">webro</text></g><g transform="translate(13320)"><text x="0" y="0" class="a">webr</text></g><g transform="translate(14800)"><text x="0" y="0" class="a">web</text></g><g transform="translate(16280)"><text x="0" y="0" class="a">webr</text></g><g transform="translate(17760)"><text x="0" y="0" class="a">web</text></g><g transform="translate(19240)"><text x="0" y="0" class="a">webt</text></g><g transform="translate(20720)"><text x="0" y="0" class="a">webto</text></g><g transform="translate(22200)"><text x="0" y="0" class="a">webtor</text></g><g transform="translate(23680)"><text x="0" y="0" class="a">webtorr</text></g><g transform="translate(25160)"><text x="0" y="0" class="a">webtorre</text></g><g transform="translate(26640)"><text x="0" y="0" class="a">webtorren</text></g><g transform="translate(28120)"><text x="0" y="0" class="a">webtorrent</text></g><g transform="translate(29600)"><text x="0" y="0" class="a">webtorrent</text></g><g transform="translate(31080)"><text x="0" y="0" class="a">webtorrent</text><text x="132" y="0" class="a">-</text></g><g transform="translate(32560)"><text x="0" y="0" class="a">webtorrent</text><text x="132" y="0" class="a">--</text></g><g transform="translate(34040)"><text x="0" y="0" class="a">webtorrent</text><text x="132" y="0" class="a">--h</text></g><g transform="translate(35520)"><text x="0" y="0" class="a">webtorrent</text><text x="132" y="0" class="a">--he</text></g><g transform="translate(37000)"><text x="0" y="0" class="a">webtorrent</text><text x="132" y="0" class="a">--hel</text></g><g transform="translate(38480)"><text x="0" y="0" class="a">webtorrent</text><text x="132" y="0" class="a">--help</text></g><g transform="translate(39960)"><text x="0" y="0" class="a">webtorrent</text><text x="132" y="0" class="a">--help</text></g><g transform="translate(41440)"><text x="0" y="0" class="a">webtorrent</text><text x="132" y="0" class="a">--help</text><text x="180" y="25" class="b">_</text><text x="252" y="25" class="b">_</text><text x="600" y="25" class="b">_</text><text x="12" y="50" class="b">__</text><text x="108" y="50" class="b">_____|</text><text x="192" y="50" class="b">|__</text><text x="240" y="50" class="b">|</text><text x="264" y="50" class="b">|_</text><text x="300" y="50" class="b">___</text><text x="360" y="50" class="b">_</text><text x="384" y="50" class="b">__</text><text x="420" y="50" class="b">_</text><text x="444" y="50" class="b">__</text><text x="480" y="50" class="b">___</text><text x="528" y="50" class="b">_</text><text x="552" y="50" class="b">__</text><text x="588" y="50" class="b">|</text><text x="612" y="50" class="b">|_</text><text x="12" y="75" class="b">\</text><text x="36" y="75" class="b">\</text><text x="60" y="75" class="b">/\</text><text x="96" y="75" class="b">/</text><text x="120" y="75" class="b">/</text><text x="144" y="75" class="b">_</text><text x="168" y="75" class="b">\</text><text x="192" y="75" class="b">'_</text><text x="228" y="75" class="b">\|</text><text x="264" y="75" class="b">__/</text><text x="312" y="75" class="b">_</text><text x="336" y="75" class="b">\|</text><text x="372" y="75" class="b">'__|</text><text x="432" y="75" class="b">'__/</text><text x="492" y="75" class="b">_</text><text x="516" y="75" class="b">\</text><text x="540" y="75" class="b">'_</text><text x="576" y="75" class="b">\|</text><text x="612" y="75" class="b">__|</text><text x="24" y="100" class="b">\</text><text x="48" y="100" class="b">V</text><text x="84" y="100" class="b">V</text><text x="108" y="100" class="b">/</text><text x="144" y="100" class="b">__/</text><text x="192" y="100" class="b">|_)</text><text x="240" y="100" class="b">|</text><text x="264" y="100" class="b">||</text><text x="300" y="100" class="b">(_)</text><text x="348" y="100" class="b">|</text><text x="372" y="100" class="b">|</text><text x="408" y="100" class="b">|</text><text x="432" y="100" class="b">|</text><text x="456" y="100" class="b">|</text><text x="492" y="100" class="b">__/</text><text x="540" y="100" class="b">|</text><text x="564" y="100" class="b">|</text><text x="588" y="100" class="b">|</text><text x="612" y="100" class="b">|_</text><text x="36" y="125" class="b">\_/\_/</text><text x="120" y="125" class="b">\___|_.__/</text><text x="252" y="125" class="b">\__\___/|_|</text><text x="408" y="125" class="b">|_|</text><text x="468" y="125" class="b">\___|_|</text><text x="564" y="125" class="b">|_|\__|</text><text x="0" y="175" class="a">Usage:</text><text x="24" y="200" class="a">webtorrent</text><text x="156" y="200" class="a">[command]</text><text x="276" y="200" class="a">&lt;torrent-id></text><text x="432" y="200" class="a">[options]</text><text x="0" y="250" class="a">Examples:</text><text x="24" y="275" class="a">webtorrent</text><text x="156" y="275" class="a">download</text><text x="264" y="275" class="a">"magnet:..."</text><text x="420" y="275" class="a">--vlc</text><text x="24" y="300" class="a">webtorrent</text><text x="156" y="300" class="a">"magnet:..."</text><text x="312" y="300" class="a">--vlc</text><text x="384" y="300" class="a">--player-args="--video-on-top</text><text x="744" y="300" class="a">--repeat"</text><text x="0" y="350" class="a">Default</text><text x="96" y="350" class="a">output</text><text x="180" y="350" class="a">location:</text><text x="24" y="375" class="a">*</text><text x="48" y="375" class="a">when</text><text x="108" y="375" class="a">streaming:</text><text x="240" y="375" class="a">Temp</text><text x="300" y="375" class="a">folder</text><text x="24" y="400" class="a">*</text><text x="48" y="400" class="a">when</text><text x="108" y="400" class="a">downloading:</text><text x="264" y="400" class="a">Current</text><text x="360" y="400" class="a">directory</text><text x="0" y="450" class="a">Specify</text><text x="96" y="450" class="a">&lt;torrent-id></text><text x="252" y="450" class="a">as</text><text x="288" y="450" class="a">one</text><text x="336" y="450" class="a">of:</text><text x="24" y="475" class="a">*</text><text x="48" y="475" class="a">magnet</text><text x="132" y="475" class="a">uri</text><text x="24" y="500" class="a">*</text><text x="48" y="500" class="a">http</text><text x="108" y="500" class="a">url</text><text x="156" y="500" class="a">to</text><text x="192" y="500" class="a">.torrent</text><text x="300" y="500" class="a">file</text><text x="24" y="525" class="a">*</text><text x="48" y="525" class="a">filesystem</text><text x="180" y="525" class="a">path</text><text x="240" y="525" class="a">to</text><text x="276" y="525" class="a">.torrent</text><text x="384" y="525" class="a">file</text><text x="24" y="550" class="a">*</text><text x="48" y="550" class="a">info</text><text x="108" y="550" class="a">hash</text><text x="168" y="550" class="a">(hex</text><text x="228" y="550" class="a">string)</text><text x="0" y="600" class="a">Commands:</text><text x="24" y="625" class="a">webtorrent</text><text x="156" y="625" class="a">download</text><text x="264" y="625" class="a">[torrent-ids...]</text><text x="528" y="625" class="a">Download</text><text x="636" y="625" class="a">a</text><text x="660" y="625" class="a">torrent</text><text x="1092" y="625" class="a">[default]</text><text x="24" y="650" class="a">webtorrent</text><text x="156" y="650" class="a">downloadmeta</text><text x="312" y="650" class="a">&lt;torre</text></g><g transform="translate(42920)"><text x="24" y="0" class="a">webtorrent</text><text x="156" y="0" class="a">download</text><text x="264" y="0" class="a">"magnet:..."</text><text x="420" y="0" class="a">--vlc</text><text x="24" y="25" class="a">webtorrent</text><text x="156" y="25" class="a">"magnet:..."</text><text x="312" y="25" class="a">--vlc</text><text x="384" y="25" class="a">--player-args="--video-on-top</text><text x="744" y="25" class="a">--repeat"</text><text x="0" y="75" class="a">Default</text><text x="96" y="75" class="a">output</text><text x="180" y="75" class="a">location:</text><text x="24" y="100" class="a">*</text><text x="48" y="100" class="a">when</text><text x="108" y="100" class="a">streaming:</text><text x="240" y="100" class="a">Temp</text><text x="300" y="100" class="a">folder</text><text x="24" y="125" class="a">*</text><text x="48" y="125" class="a">when</text><text x="108" y="125" class="a">downloading:</text><text x="264" y="125" class="a">Current</text><text x="360" y="125" class="a">directory</text><text x="0" y="175" class="a">Specify</text><text x="96" y="175" class="a">&lt;torrent-id></text><text x="252" y="175" class="a">as</text><text x="288" y="175" class="a">one</text><text x="336" y="175" class="a">of:</text><text x="24" y="200" class="a">*</text><text x="48" y="200" class="a">magnet</text><text x="132" y="200" class="a">uri</text><text x="24" y="225" class="a">*</text><text x="48" y="225" class="a">http</text><text x="108" y="225" class="a">url</text><text x="156" y="225" class="a">to</text><text x="192" y="225" class="a">.torrent</text><text x="300" y="225" class="a">file</text><text x="24" y="250" class="a">*</text><text x="48" y="250" class="a">filesystem</text><text x="180" y="250" class="a">path</text><text x="240" y="250" class="a">to</text><text x="276" y="250" class="a">.torrent</text><text x="384" y="250" class="a">file</text><text x="24" y="275" class="a">*</text><text x="48" y="275" class="a">info</text><text x="108" y="275" class="a">hash</text><text x="168" y="275" class="a">(hex</text><text x="228" y="275" class="a">string)</text><text x="0" y="325" class="a">Commands:</text><text x="24" y="350" class="a">webtorrent</text><text x="156" y="350" class="a">download</text><text x="264" y="350" class="a">[torrent-ids...]</text><text x="528" y="350" class="a">Download</text><text x="636" y="350" class="a">a</text><text x="660" y="350" class="a">torrent</text><text x="1092" y="350" class="a">[default]</text><text x="24" y="375" class="a">webtorrent</text><text x="156" y="375" class="a">downloadmeta</text><text x="312" y="375" class="a">&lt;torrent-ids...></text><text x="528" y="375" class="a">Download</text><text x="636" y="375" class="a">metadata</text><text x="744" y="375" class="a">of</text><text x="780" y="375" class="a">torrent</text><text x="24" y="400" class="a">webtorrent</text><text x="156" y="400" class="a">seed</text><text x="216" y="400" class="a">&lt;inputs...></text><text x="528" y="400" class="a">Seed</text><text x="588" y="400" class="a">a</text><text x="612" y="400" class="a">file</text><text x="672" y="400" class="a">or</text><text x="708" y="400" class="a">a</text><text x="732" y="400" class="a">folder</text><text x="24" y="425" class="a">webtorrent</text><text x="156" y="425" class="a">create</text><text x="240" y="425" class="a">&lt;input></text><text x="528" y="425" class="a">Create</text><text x="612" y="425" class="a">a</text><text x="636" y="425" class="a">.torrent</text><text x="744" y="425" class="a">file</text><text x="24" y="450" class="a">webtorrent</text><text x="156" y="450" class="a">info</text><text x="216" y="450" class="a">&lt;torrent-id></text><text x="528" y="450" class="a">Show</text><text x="588" y="450" class="a">torrent</text><text x="684" y="450" class="a">information</text><text x="24" y="475" class="a">webtorrent</text><text x="156" y="475" class="a">version</text><text x="528" y="475" class="a">Show</text><text x="588" y="475" class="a">version</text><text x="684" y="475" class="a">information</text><text x="24" y="500" class="a">webtorrent</text><text x="156" y="500" class="a">help</text><text x="528" y="500" class="a">Show</text><text x="588" y="500" class="a">help</text><text x="648" y="500" class="a">information</text><text x="0" y="550" class="a">Options</text><text x="96" y="550" class="a">(streaming):</text><text x="72" y="575" class="a">--airplay</text><text x="240" y="575" class="a">Apple</text><text x="312" y="575" class="a">TV</text><text x="1092" y="575" class="a">[boolean]</text><text x="72" y="600" class="a">--chromecast</text><text x="240" y="600" class="a">Google</text><text x="324" y="600" class="a">Chromecast</text><text x="1032" y="600" class="a">[default:</text><text x="1152" y="600" class="a">all]</text><text x="72" y="625" class="a">--dlna</text><text x="240" y="625" class="a">DLNA</text><text x="1092" y="625" class="a">[boolean]</text><text x="72" y="650" class="a">--mplayer</text><text x="240" y="650" class="a">MPlayer</text><text x="1092" y="650" class="a">[boolean]</text><text x="72" y="675" class="a">--mpv</text><text x="240" y="675" class="a">MPV</text><text x="1092" y="675" class="a">[boolean]</text><text x="72" y="700" class="a">--omx</text><text x="240" y="700" class="a">OMX</text><text x="1020" y="700" class="a">[default:</text><text x="1140" y="700" class="a">hdmi]</text></g><g transform="translate(44400)"><text x="24" y="0" class="a">*</text><text x="48" y="0" class="a">info</text><text x="108" y="0" class="a">hash</text><text x="168" y="0" class="a">(hex</text><text x="228" y="0" class="a">string)</text><text x="0" y="50" class="a">Commands:</text><text x="24" y="75" class="a">webtorrent</text><text x="156" y="75" class="a">download</text><text x="264" y="75" class="a">[torrent-ids...]</text><text x="528" y="75" class="a">Download</text><text x="636" y="75" class="a">a</text><text x="660" y="75" class="a">torrent</text><text x="1092" y="75" class="a">[default]</text><text x="24" y="100" class="a">webtorrent</text><text x="156" y="100" class="a">downloadmeta</text><text x="312" y="100" class="a">&lt;torrent-ids...></text><text x="528" y="100" class="a">Download</text><text x="636" y="100" class="a">metadata</text><text x="744" y="100" class="a">of</text><text x="780" y="100" class="a">torrent</text><text x="24" y="125" class="a">webtorrent</text><text x="156" y="125" class="a">seed</text><text x="216" y="125" class="a">&lt;inputs...></text><text x="528" y="125" class="a">Seed</text><text x="588" y="125" class="a">a</text><text x="612" y="125" class="a">file</text><text x="672" y="125" class="a">or</text><text x="708" y="125" class="a">a</text><text x="732" y="125" class="a">folder</text><text x="24" y="150" class="a">webtorrent</text><text x="156" y="150" class="a">create</text><text x="240" y="150" class="a">&lt;input></text><text x="528" y="150" class="a">Create</text><text x="612" y="150" class="a">a</text><text x="636" y="150" class="a">.torrent</text><text x="744" y="150" class="a">file</text><text x="24" y="175" class="a">webtorrent</text><text x="156" y="175" class="a">info</text><text x="216" y="175" class="a">&lt;torrent-id></text><text x="528" y="175" class="a">Show</text><text x="588" y="175" class="a">torrent</text><text x="684" y="175" class="a">information</text><text x="24" y="200" class="a">webtorrent</text><text x="156" y="200" class="a">version</text><text x="528" y="200" class="a">Show</text><text x="588" y="200" class="a">version</text><text x="684" y="200" class="a">information</text><text x="24" y="225" class="a">webtorrent</text><text x="156" y="225" class="a">help</text><text x="528" y="225" class="a">Show</text><text x="588" y="225" class="a">help</text><text x="648" y="225" class="a">information</text><text x="0" y="275" class="a">Options</text><text x="96" y="275" class="a">(streaming):</text><text x="72" y="300" class="a">--airplay</text><text x="240" y="300" class="a">Apple</text><text x="312" y="300" class="a">TV</text><text x="1092" y="300" class="a">[boolean]</text><text x="72" y="325" class="a">--chromecast</text><text x="240" y="325" class="a">Google</text><text x="324" y="325" class="a">Chromecast</text><text x="1032" y="325" class="a">[default:</text><text x="1152" y="325" class="a">all]</text><text x="72" y="350" class="a">--dlna</text><text x="240" y="350" class="a">DLNA</text><text x="1092" y="350" class="a">[boolean]</text><text x="72" y="375" class="a">--mplayer</text><text x="240" y="375" class="a">MPlayer</text><text x="1092" y="375" class="a">[boolean]</text><text x="72" y="400" class="a">--mpv</text><text x="240" y="400" class="a">MPV</text><text x="1092" y="400" class="a">[boolean]</text><text x="72" y="425" class="a">--omx</text><text x="240" y="425" class="a">OMX</text><text x="1020" y="425" class="a">[default:</text><text x="1140" y="425" class="a">hdmi]</text><text x="72" y="450" class="a">--vlc</text><text x="240" y="450" class="a">VLC</text><text x="1092" y="450" class="a">[boolean]</text><text x="72" y="475" class="a">--iina</text><text x="240" y="475" class="a">IINA</text><text x="1092" y="475" class="a">[boolean]</text><text x="72" y="500" class="a">--smplayer</text><text x="240" y="500" class="a">SMPlayer</text><text x="1092" y="500" class="a">[boolean]</text><text x="72" y="525" class="a">--xbmc</text><text x="240" y="525" class="a">XBMC</text><text x="1092" y="525" class="a">[boolean]</text><text x="72" y="550" class="a">--stdout</text><text x="240" y="550" class="a">Standard</text><text x="348" y="550" class="a">out</text><text x="396" y="550" class="a">(implies</text><text x="504" y="550" class="a">--quiet)</text><text x="1092" y="550" class="a">[boolean]</text><text x="0" y="600" class="a">Options</text><text x="96" y="600" class="a">(simple):</text><text x="24" y="625" class="a">-o,</text><text x="72" y="625" class="a">--out</text><text x="336" y="625" class="a">Set</text><text x="384" y="625" class="a">download</text><text x="492" y="625" class="a">destination</text><text x="1104" y="625" class="a">[string]</text><text x="24" y="650" class="a">-s,</text><text x="72" y="650" class="a">--select</text><text x="336" y="650" class="a">Select</text><text x="420" y="650" class="a">specific</text><text x="528" y="650" class="a">file</text><text x="588" y="650" class="a">in</text><text x="624" y="650" class="a">torrent</text><text x="948" y="650" class="a">[default:</text><text x="1068" y="650" class="a">List</text><text x="1128" y="650" class="a">files]</text><text x="24" y="675" class="a">-i,</text><text x="72" y="675" class="a">--interactive-select</text><text x="336" y="675" class="a">Interactively</text><text x="504" y="675" class="a">select</text><text x="588" y="675" class="a">specific</text><text x="696" y="675" class="a">file</text><text x="756" y="675" class="a">in</text><text x="792" y="675" class="a">torrent</text><text x="1092" y="675" class="a">[boolean]</text><text x="24" y="700" class="a">-t,</text><text x="72" y="700" class="a">--subtitles</text><text x="336" y="700" class="a">Load</text><text x="396" y="700" class="a">subtitles</text><text x="516" y="700" class="a">file</text><text x="1104" y="700" class="a">[string]</text><text x="24" y="725" class="a">-h,</text><text x="72" y="725" class="a">--help</text><text x="336" y="725" class="a">Show</text><text x="396" y="725" class="a">help</text><text x="456" y="725" class="a">information</text></g><g transform="translate(45880)"><text x="72" y="0" class="a">--airplay</text><text x="240" y="0" class="a">Apple</text><text x="312" y="0" class="a">TV</text><text x="1092" y="0" class="a">[boolean]</text><text x="72" y="25" class="a">--chromecast</text><text x="240" y="25" class="a">Google</text><text x="324" y="25" class="a">Chromecast</text><text x="1032" y="25" class="a">[default:</text><text x="1152" y="25" class="a">all]</text><text x="72" y="50" class="a">--dlna</text><text x="240" y="50" class="a">DLNA</text><text x="1092" y="50" class="a">[boolean]</text><text x="72" y="75" class="a">--mplayer</text><text x="240" y="75" class="a">MPlayer</text><text x="1092" y="75" class="a">[boolean]</text><text x="72" y="100" class="a">--mpv</text><text x="240" y="100" class="a">MPV</text><text x="1092" y="100" class="a">[boolean]</text><text x="72" y="125" class="a">--omx</text><text x="240" y="125" class="a">OMX</text><text x="1020" y="125" class="a">[default:</text><text x="1140" y="125" class="a">hdmi]</text><text x="72" y="150" class="a">--vlc</text><text x="240" y="150" class="a">VLC</text><text x="1092" y="150" class="a">[boolean]</text><text x="72" y="175" class="a">--iina</text><text x="240" y="175" class="a">IINA</text><text x="1092" y="175" class="a">[boolean]</text><text x="72" y="200" class="a">--smplayer</text><text x="240" y="200" class="a">SMPlayer</text><text x="1092" y="200" class="a">[boolean]</text><text x="72" y="225" class="a">--xbmc</text><text x="240" y="225" class="a">XBMC</text><text x="1092" y="225" class="a">[boolean]</text><text x="72" y="250" class="a">--stdout</text><text x="240" y="250" class="a">Standard</text><text x="348" y="250" class="a">out</text><text x="396" y="250" class="a">(implies</text><text x="504" y="250" class="a">--quiet)</text><text x="1092" y="250" class="a">[boolean]</text><text x="0" y="300" class="a">Options</text><text x="96" y="300" class="a">(simple):</text><text x="24" y="325" class="a">-o,</text><text x="72" y="325" class="a">--out</text><text x="336" y="325" class="a">Set</text><text x="384" y="325" class="a">download</text><text x="492" y="325" class="a">destination</text><text x="1104" y="325" class="a">[string]</text><text x="24" y="350" class="a">-s,</text><text x="72" y="350" class="a">--select</text><text x="336" y="350" class="a">Select</text><text x="420" y="350" class="a">specific</text><text x="528" y="350" class="a">file</text><text x="588" y="350" class="a">in</text><text x="624" y="350" class="a">torrent</text><text x="948" y="350" class="a">[default:</text><text x="1068" y="350" class="a">List</text><text x="1128" y="350" class="a">files]</text><text x="24" y="375" class="a">-i,</text><text x="72" y="375" class="a">--interactive-select</text><text x="336" y="375" class="a">Interactively</text><text x="504" y="375" class="a">select</text><text x="588" y="375" class="a">specific</text><text x="696" y="375" class="a">file</text><text x="756" y="375" class="a">in</text><text x="792" y="375" class="a">torrent</text><text x="1092" y="375" class="a">[boolean]</text><text x="24" y="400" class="a">-t,</text><text x="72" y="400" class="a">--subtitles</text><text x="336" y="400" class="a">Load</text><text x="396" y="400" class="a">subtitles</text><text x="516" y="400" class="a">file</text><text x="1104" y="400" class="a">[string]</text><text x="24" y="425" class="a">-h,</text><text x="72" y="425" class="a">--help</text><text x="336" y="425" class="a">Show</text><text x="396" y="425" class="a">help</text><text x="456" y="425" class="a">information</text><text x="1092" y="425" class="a">[boolean]</text><text x="24" y="450" class="a">-v,</text><text x="72" y="450" class="a">--version</text><text x="336" y="450" class="a">Show</text><text x="396" y="450" class="a">version</text><text x="492" y="450" class="a">information</text><text x="1092" y="450" class="a">[boolean]</text><text x="0" y="500" class="a">Options</text><text x="96" y="500" class="a">(advanced)</text><text x="24" y="525" class="a">-p,</text><text x="72" y="525" class="a">--port</text><text x="288" y="525" class="a">Change</text><text x="372" y="525" class="a">the</text><text x="420" y="525" class="a">http</text><text x="480" y="525" class="a">server</text><text x="564" y="525" class="a">port</text><text x="912" y="525" class="a">[number]</text><text x="1020" y="525" class="a">[default:</text><text x="1140" y="525" class="a">8000]</text><text x="24" y="550" class="a">-b,</text><text x="72" y="550" class="a">--blocklist</text><text x="288" y="550" class="a">Load</text><text x="348" y="550" class="a">blocklist</text><text x="468" y="550" class="a">file/url</text><text x="1104" y="550" class="a">[string]</text><text x="24" y="575" class="a">-a,</text><text x="72" y="575" class="a">--announce</text><text x="288" y="575" class="a">Tracker</text><text x="384" y="575" class="a">URL</text><text x="432" y="575" class="a">to</text><text x="468" y="575" class="a">announce</text><text x="576" y="575" class="a">to</text><text x="1104" y="575" class="a">[string]</text><text x="24" y="600" class="a">-q,</text><text x="72" y="600" class="a">--quiet</text><text x="288" y="600" class="a">Don't</text><text x="360" y="600" class="a">show</text><text x="420" y="600" class="a">UI</text><text x="456" y="600" class="a">on</text><text x="492" y="600" class="a">stdout</text><text x="1092" y="600" class="a">[boolean]</text><text x="24" y="625" class="a">-d,</text><text x="72" y="625" class="a">--download-limit</text><text x="288" y="625" class="a">Maximum</text><text x="384" y="625" class="a">download</text><text x="492" y="625" class="a">speed</text><text x="564" y="625" class="a">in</text><text x="600" y="625" class="a">kB/s</text><text x="852" y="625" class="a">[number]</text><text x="960" y="625" class="a">[default:</text><text x="1080" y="625" class="a">unlimited]</text><text x="24" y="650" class="a">-u,</text><text x="72" y="650" class="a">--upload-limit</text><text x="288" y="650" class="a">Maximum</text><text x="384" y="650" class="a">upload</text><text x="468" y="650" class="a">speed</text><text x="540" y="650" class="a">in</text><text x="576" y="650" class="a">kB/s</text><text x="852" y="650" class="a">[number]</text><text x="960" y="650" class="a">[default:</text><text x="1080" y="650" class="a">unlimited]</text><text x="72" y="675" class="a">--pip</text><text x="288" y="675" class="a">Enter</text><text x="360" y="675" class="a">Picture-in-Picture</text><text x="588" y="675" class="a">if</text><text x="624" y="675" class="a">supported</text><text x="744" y="675" class="a">by</text><text x="780" y="675" class="a">the</text><text x="828" y="675" class="a">player</text><text x="1092" y="675" class="a">[boolean]</text><text x="72" y="700" class="a">--verbose</text><text x="288" y="700" class="a">Show</text><text x="348" y="700" class="a">torrent</text><text x="444" y="700" class="a">protocol</text><text x="552" y="700" class="a">details</text><text x="1092" y="700" class="a">[boolean]</text><text x="72" y="725" class="a">--playlist</text><text x="288" y="725" class="a">Open</text><text x="348" y="725" class="a">files</text><text x="420" y="725" class="a">in</text><text x="456" y="725" class="a">a</text><text x="480" y="725" class="a">playlist</text><text x="588" y="725" class="a">if</text><text x="624" y="725" class="a">supported</text><text x="744" y="725" class="a">by</text><text x="780" y="725" class="a">the</text></g><g transform="translate(47360)"><text x="72" y="0" class="a">--xbmc</text><text x="240" y="0" class="a">XBMC</text><text x="1092" y="0" class="a">[boolean]</text><text x="72" y="25" class="a">--stdout</text><text x="240" y="25" class="a">Standard</text><text x="348" y="25" class="a">out</text><text x="396" y="25" class="a">(implies</text><text x="504" y="25" class="a">--quiet)</text><text x="1092" y="25" class="a">[boolean]</text><text x="0" y="75" class="a">Options</text><text x="96" y="75" class="a">(simple):</text><text x="24" y="100" class="a">-o,</text><text x="72" y="100" class="a">--out</text><text x="336" y="100" class="a">Set</text><text x="384" y="100" class="a">download</text><text x="492" y="100" class="a">destination</text><text x="1104" y="100" class="a">[string]</text><text x="24" y="125" class="a">-s,</text><text x="72" y="125" class="a">--select</text><text x="336" y="125" class="a">Select</text><text x="420" y="125" class="a">specific</text><text x="528" y="125" class="a">file</text><text x="588" y="125" class="a">in</text><text x="624" y="125" class="a">torrent</text><text x="948" y="125" class="a">[default:</text><text x="1068" y="125" class="a">List</text><text x="1128" y="125" class="a">files]</text><text x="24" y="150" class="a">-i,</text><text x="72" y="150" class="a">--interactive-select</text><text x="336" y="150" class="a">Interactively</text><text x="504" y="150" class="a">select</text><text x="588" y="150" class="a">specific</text><text x="696" y="150" class="a">file</text><text x="756" y="150" class="a">in</text><text x="792" y="150" class="a">torrent</text><text x="1092" y="150" class="a">[boolean]</text><text x="24" y="175" class="a">-t,</text><text x="72" y="175" class="a">--subtitles</text><text x="336" y="175" class="a">Load</text><text x="396" y="175" class="a">subtitles</text><text x="516" y="175" class="a">file</text><text x="1104" y="175" class="a">[string]</text><text x="24" y="200" class="a">-h,</text><text x="72" y="200" class="a">--help</text><text x="336" y="200" class="a">Show</text><text x="396" y="200" class="a">help</text><text x="456" y="200" class="a">information</text><text x="1092" y="200" class="a">[boolean]</text><text x="24" y="225" class="a">-v,</text><text x="72" y="225" class="a">--version</text><text x="336" y="225" class="a">Show</text><text x="396" y="225" class="a">version</text><text x="492" y="225" class="a">information</text><text x="1092" y="225" class="a">[boolean]</text><text x="0" y="275" class="a">Options</text><text x="96" y="275" class="a">(advanced)</text><text x="24" y="300" class="a">-p,</text><text x="72" y="300" class="a">--port</text><text x="288" y="300" class="a">Change</text><text x="372" y="300" class="a">the</text><text x="420" y="300" class="a">http</text><text x="480" y="300" class="a">server</text><text x="564" y="300" class="a">port</text><text x="912" y="300" class="a">[number]</text><text x="1020" y="300" class="a">[default:</text><text x="1140" y="300" class="a">8000]</text><text x="24" y="325" class="a">-b,</text><text x="72" y="325" class="a">--blocklist</text><text x="288" y="325" class="a">Load</text><text x="348" y="325" class="a">blocklist</text><text x="468" y="325" class="a">file/url</text><text x="1104" y="325" class="a">[string]</text><text x="24" y="350" class="a">-a,</text><text x="72" y="350" class="a">--announce</text><text x="288" y="350" class="a">Tracker</text><text x="384" y="350" class="a">URL</text><text x="432" y="350" class="a">to</text><text x="468" y="350" class="a">announce</text><text x="576" y="350" class="a">to</text><text x="1104" y="350" class="a">[string]</text><text x="24" y="375" class="a">-q,</text><text x="72" y="375" class="a">--quiet</text><text x="288" y="375" class="a">Don't</text><text x="360" y="375" class="a">show</text><text x="420" y="375" class="a">UI</text><text x="456" y="375" class="a">on</text><text x="492" y="375" class="a">stdout</text><text x="1092" y="375" class="a">[boolean]</text><text x="24" y="400" class="a">-d,</text><text x="72" y="400" class="a">--download-limit</text><text x="288" y="400" class="a">Maximum</text><text x="384" y="400" class="a">download</text><text x="492" y="400" class="a">speed</text><text x="564" y="400" class="a">in</text><text x="600" y="400" class="a">kB/s</text><text x="852" y="400" class="a">[number]</text><text x="960" y="400" class="a">[default:</text><text x="1080" y="400" class="a">unlimited]</text><text x="24" y="425" class="a">-u,</text><text x="72" y="425" class="a">--upload-limit</text><text x="288" y="425" class="a">Maximum</text><text x="384" y="425" class="a">upload</text><text x="468" y="425" class="a">speed</text><text x="540" y="425" class="a">in</text><text x="576" y="425" class="a">kB/s</text><text x="852" y="425" class="a">[number]</text><text x="960" y="425" class="a">[default:</text><text x="1080" y="425" class="a">unlimited]</text><text x="72" y="450" class="a">--pip</text><text x="288" y="450" class="a">Enter</text><text x="360" y="450" class="a">Picture-in-Picture</text><text x="588" y="450" class="a">if</text><text x="624" y="450" class="a">supported</text><text x="744" y="450" class="a">by</text><text x="780" y="450" class="a">the</text><text x="828" y="450" class="a">player</text><text x="1092" y="450" class="a">[boolean]</text><text x="72" y="475" class="a">--verbose</text><text x="288" y="475" class="a">Show</text><text x="348" y="475" class="a">torrent</text><text x="444" y="475" class="a">protocol</text><text x="552" y="475" class="a">details</text><text x="1092" y="475" class="a">[boolean]</text><text x="72" y="500" class="a">--playlist</text><text x="288" y="500" class="a">Open</text><text x="348" y="500" class="a">files</text><text x="420" y="500" class="a">in</text><text x="456" y="500" class="a">a</text><text x="480" y="500" class="a">playlist</text><text x="588" y="500" class="a">if</text><text x="624" y="500" class="a">supported</text><text x="744" y="500" class="a">by</text><text x="780" y="500" class="a">the</text><text x="828" y="500" class="a">player</text><text x="1092" y="500" class="a">[boolean]</text><text x="72" y="525" class="a">--player-args</text><text x="288" y="525" class="a">Add</text><text x="336" y="525" class="a">player</text><text x="420" y="525" class="a">specific</text><text x="528" y="525" class="a">arguments</text><text x="648" y="525" class="a">(see</text><text x="708" y="525" class="a">example)</text><text x="1104" y="525" class="a">[string]</text><text x="72" y="550" class="a">--torrent-port</text><text x="288" y="550" class="a">Change</text><text x="372" y="550" class="a">the</text><text x="420" y="550" class="a">torrent</text><text x="516" y="550" class="a">seeding</text><text x="612" y="550" class="a">port</text><text x="888" y="550" class="a">[number]</text><text x="996" y="550" class="a">[default:</text><text x="1116" y="550" class="a">random]</text><text x="72" y="575" class="a">--dht-port</text><text x="288" y="575" class="a">Change</text><text x="372" y="575" class="a">the</text><text x="420" y="575" class="a">dht</text><text x="468" y="575" class="a">port</text><text x="888" y="575" class="a">[number]</text><text x="996" y="575" class="a">[default:</text><text x="1116" y="575" class="a">random]</text><text x="72" y="600" class="a">--not-on-top</text><text x="288" y="600" class="a">Don't</text><text x="360" y="600" class="a">set</text><text x="408" y="600" class="a">"always</text><text x="504" y="600" class="a">on</text><text x="540" y="600" class="a">top"</text><text x="600" y="600" class="a">option</text><text x="684" y="600" class="a">in</text><text x="720" y="600" class="a">player</text><text x="1092" y="600" class="a">[boolean]</text><text x="72" y="625" class="a">--keep-seeding</text><text x="288" y="625" class="a">Don't</text><text x="360" y="625" class="a">quit</text><text x="420" y="625" class="a">when</text><text x="480" y="625" class="a">done</text><text x="540" y="625" class="a">downloading</text><text x="1092" y="625" class="a">[boolean]</text><text x="72" y="650" class="a">--no-quit</text><text x="288" y="650" class="a">Don't</text><text x="360" y="650" class="a">quit</text><text x="420" y="650" class="a">when</text><text x="480" y="650" class="a">player</text><text x="564" y="650" class="a">exits</text><text x="1092" y="650" class="a">[boolean]</text><text x="72" y="675" class="a">--on-done</text><text x="288" y="675" class="a">Run</text><text x="336" y="675" class="a">script</text><text x="420" y="675" class="a">after</text><text x="492" y="675" class="a">torrent</text><text x="588" y="675" class="a">download</text><text x="696" y="675" class="a">is</text><text x="732" y="675" class="a">done</text><text x="1104" y="675" class="a">[string]</text><text x="72" y="700" class="a">--on-exit</text><text x="288" y="700" class="a">Run</text><text x="336" y="700" class="a">script</text><text x="420" y="700" class="a">before</text><text x="504" y="700" class="a">program</text><text x="600" y="700" class="a">exit</text><text x="1104" y="700" class="a">[string]</text></g><g transform="translate(48840)"><text x="72" y="0" class="a">--stdout</text><text x="240" y="0" class="a">Standard</text><text x="348" y="0" class="a">out</text><text x="396" y="0" class="a">(implies</text><text x="504" y="0" class="a">--quiet)</text><text x="1092" y="0" class="a">[boolean]</text><text x="0" y="50" class="a">Options</text><text x="96" y="50" class="a">(simple):</text><text x="24" y="75" class="a">-o,</text><text x="72" y="75" class="a">--out</text><text x="336" y="75" class="a">Set</text><text x="384" y="75" class="a">download</text><text x="492" y="75" class="a">destination</text><text x="1104" y="75" class="a">[string]</text><text x="24" y="100" class="a">-s,</text><text x="72" y="100" class="a">--select</text><text x="336" y="100" class="a">Select</text><text x="420" y="100" class="a">specific</text><text x="528" y="100" class="a">file</text><text x="588" y="100" class="a">in</text><text x="624" y="100" class="a">torrent</text><text x="948" y="100" class="a">[default:</text><text x="1068" y="100" class="a">List</text><text x="1128" y="100" class="a">files]</text><text x="24" y="125" class="a">-i,</text><text x="72" y="125" class="a">--interactive-select</text><text x="336" y="125" class="a">Interactively</text><text x="504" y="125" class="a">select</text><text x="588" y="125" class="a">specific</text><text x="696" y="125" class="a">file</text><text x="756" y="125" class="a">in</text><text x="792" y="125" class="a">torrent</text><text x="1092" y="125" class="a">[boolean]</text><text x="24" y="150" class="a">-t,</text><text x="72" y="150" class="a">--subtitles</text><text x="336" y="150" class="a">Load</text><text x="396" y="150" class="a">subtitles</text><text x="516" y="150" class="a">file</text><text x="1104" y="150" class="a">[string]</text><text x="24" y="175" class="a">-h,</text><text x="72" y="175" class="a">--help</text><text x="336" y="175" class="a">Show</text><text x="396" y="175" class="a">help</text><text x="456" y="175" class="a">information</text><text x="1092" y="175" class="a">[boolean]</text><text x="24" y="200" class="a">-v,</text><text x="72" y="200" class="a">--version</text><text x="336" y="200" class="a">Show</text><text x="396" y="200" class="a">version</text><text x="492" y="200" class="a">information</text><text x="1092" y="200" class="a">[boolean]</text><text x="0" y="250" class="a">Options</text><text x="96" y="250" class="a">(advanced)</text><text x="24" y="275" class="a">-p,</text><text x="72" y="275" class="a">--port</text><text x="288" y="275" class="a">Change</text><text x="372" y="275" class="a">the</text><text x="420" y="275" class="a">http</text><text x="480" y="275" class="a">server</text><text x="564" y="275" class="a">port</text><text x="912" y="275" class="a">[number]</text><text x="1020" y="275" class="a">[default:</text><text x="1140" y="275" class="a">8000]</text><text x="24" y="300" class="a">-b,</text><text x="72" y="300" class="a">--blocklist</text><text x="288" y="300" class="a">Load</text><text x="348" y="300" class="a">blocklist</text><text x="468" y="300" class="a">file/url</text><text x="1104" y="300" class="a">[string]</text><text x="24" y="325" class="a">-a,</text><text x="72" y="325" class="a">--announce</text><text x="288" y="325" class="a">Tracker</text><text x="384" y="325" class="a">URL</text><text x="432" y="325" class="a">to</text><text x="468" y="325" class="a">announce</text><text x="576" y="325" class="a">to</text><text x="1104" y="325" class="a">[string]</text><text x="24" y="350" class="a">-q,</text><text x="72" y="350" class="a">--quiet</text><text x="288" y="350" class="a">Don't</text><text x="360" y="350" class="a">show</text><text x="420" y="350" class="a">UI</text><text x="456" y="350" class="a">on</text><text x="492" y="350" class="a">stdout</text><text x="1092" y="350" class="a">[boolean]</text><text x="24" y="375" class="a">-d,</text><text x="72" y="375" class="a">--download-limit</text><text x="288" y="375" class="a">Maximum</text><text x="384" y="375" class="a">download</text><text x="492" y="375" class="a">speed</text><text x="564" y="375" class="a">in</text><text x="600" y="375" class="a">kB/s</text><text x="852" y="375" class="a">[number]</text><text x="960" y="375" class="a">[default:</text><text x="1080" y="375" class="a">unlimited]</text><text x="24" y="400" class="a">-u,</text><text x="72" y="400" class="a">--upload-limit</text><text x="288" y="400" class="a">Maximum</text><text x="384" y="400" class="a">upload</text><text x="468" y="400" class="a">speed</text><text x="540" y="400" class="a">in</text><text x="576" y="400" class="a">kB/s</text><text x="852" y="400" class="a">[number]</text><text x="960" y="400" class="a">[default:</text><text x="1080" y="400" class="a">unlimited]</text><text x="72" y="425" class="a">--pip</text><text x="288" y="425" class="a">Enter</text><text x="360" y="425" class="a">Picture-in-Picture</text><text x="588" y="425" class="a">if</text><text x="624" y="425" class="a">supported</text><text x="744" y="425" class="a">by</text><text x="780" y="425" class="a">the</text><text x="828" y="425" class="a">player</text><text x="1092" y="425" class="a">[boolean]</text><text x="72" y="450" class="a">--verbose</text><text x="288" y="450" class="a">Show</text><text x="348" y="450" class="a">torrent</text><text x="444" y="450" class="a">protocol</text><text x="552" y="450" class="a">details</text><text x="1092" y="450" class="a">[boolean]</text><text x="72" y="475" class="a">--playlist</text><text x="288" y="475" class="a">Open</text><text x="348" y="475" class="a">files</text><text x="420" y="475" class="a">in</text><text x="456" y="475" class="a">a</text><text x="480" y="475" class="a">playlist</text><text x="588" y="475" class="a">if</text><text x="624" y="475" class="a">supported</text><text x="744" y="475" class="a">by</text><text x="780" y="475" class="a">the</text><text x="828" y="475" class="a">player</text><text x="1092" y="475" class="a">[boolean]</text><text x="72" y="500" class="a">--player-args</text><text x="288" y="500" class="a">Add</text><text x="336" y="500" class="a">player</text><text x="420" y="500" class="a">specific</text><text x="528" y="500" class="a">arguments</text><text x="648" y="500" class="a">(see</text><text x="708" y="500" class="a">example)</text><text x="1104" y="500" class="a">[string]</text><text x="72" y="525" class="a">--torrent-port</text><text x="288" y="525" class="a">Change</text><text x="372" y="525" class="a">the</text><text x="420" y="525" class="a">torrent</text><text x="516" y="525" class="a">seeding</text><text x="612" y="525" class="a">port</text><text x="888" y="525" class="a">[number]</text><text x="996" y="525" class="a">[default:</text><text x="1116" y="525" class="a">random]</text><text x="72" y="550" class="a">--dht-port</text><text x="288" y="550" class="a">Change</text><text x="372" y="550" class="a">the</text><text x="420" y="550" class="a">dht</text><text x="468" y="550" class="a">port</text><text x="888" y="550" class="a">[number]</text><text x="996" y="550" class="a">[default:</text><text x="1116" y="550" class="a">random]</text><text x="72" y="575" class="a">--not-on-top</text><text x="288" y="575" class="a">Don't</text><text x="360" y="575" class="a">set</text><text x="408" y="575" class="a">"always</text><text x="504" y="575" class="a">on</text><text x="540" y="575" class="a">top"</text><text x="600" y="575" class="a">option</text><text x="684" y="575" class="a">in</text><text x="720" y="575" class="a">player</text><text x="1092" y="575" class="a">[boolean]</text><text x="72" y="600" class="a">--keep-seeding</text><text x="288" y="600" class="a">Don't</text><text x="360" y="600" class="a">quit</text><text x="420" y="600" class="a">when</text><text x="480" y="600" class="a">done</text><text x="540" y="600" class="a">downloading</text><text x="1092" y="600" class="a">[boolean]</text><text x="72" y="625" class="a">--no-quit</text><text x="288" y="625" class="a">Don't</text><text x="360" y="625" class="a">quit</text><text x="420" y="625" class="a">when</text><text x="480" y="625" class="a">player</text><text x="564" y="625" class="a">exits</text><text x="1092" y="625" class="a">[boolean]</text><text x="72" y="650" class="a">--on-done</text><text x="288" y="650" class="a">Run</text><text x="336" y="650" class="a">script</text><text x="420" y="650" class="a">after</text><text x="492" y="650" class="a">torrent</text><text x="588" y="650" class="a">download</text><text x="696" y="650" class="a">is</text><text x="732" y="650" class="a">done</text><text x="1104" y="650" class="a">[string]</text><text x="72" y="675" class="a">--on-exit</text><text x="288" y="675" class="a">Run</text><text x="336" y="675" class="a">script</text><text x="420" y="675" class="a">before</text><text x="504" y="675" class="a">program</text><text x="600" y="675" class="a">exit</text><text x="1104" y="675" class="a">[string]</text></g></g></g></svg>